# xmcd
#
# Track frame offsets: 
#        150
#        26302
#        53387
#        75940
#        97405
#        108547
#        136460
#        159097
#        184242
#        212052
#
# Disc length: 3031 seconds
#
# Revision: 1
# Processed by: cddbd v1.5.2PL0 Copyright (c) Steve Scherf et al.
# Submitted via: ExactAudioCopyFreeDBPlugin 1.0
#
DISCID=780bd50a
DTITLE=き乃はち - 宙-SORA-
DYEAR=2003
DGENRE=New Age
TTITLE0=宙へ
TTITLE1=空谷の音
TTITLE2=艶舞
TTITLE3=一滴
TTITLE4=呼び竹・受け竹
TTITLE5=渓谷の風
TTITLE6=木漏れ日
TTITLE7=秋の扇
TTITLE8=偶感
TTITLE9=遇対
EXTD=YEAR: 2003
EXTT0=
EXTT1=
EXTT2=
EXTT3=
EXTT4=
EXTT5=
EXTT6=
EXTT7=
EXTT8=
EXTT9=
PLAYORDER=
